<svg width="23" height="26" viewBox="0 0 23 26" fill="none" xmlns="http://www.w3.org/2000/svg">
<path d="M6.49988 0V3.25H9.74988V3.3475C4.22488 4.1275 -0.00012207 8.905 -0.00012207 14.625C-0.00012207 20.8975 5.10238 26 11.3749 26C17.6474 26 22.7499 20.8975 22.7499 14.625C22.7499 13.1625 22.4249 11.7975 21.9374 10.5625L18.9799 11.7975C19.3374 12.74 19.4999 13.65 19.4999 14.6575C19.4999 19.175 15.8924 22.7825 11.3749 22.7825C6.85738 22.7825 3.24988 19.175 3.24988 14.6575C3.24988 10.14 6.85738 6.5325 11.3749 6.5325C12.3499 6.5325 13.2924 6.695 14.2349 7.0525L15.3399 3.9975C14.5924 3.7375 13.8124 3.6075 12.9999 3.4775V3.2825H16.2499V0.0325H6.49988V0ZM22.7499 3.77C22.7499 3.77 10.8874 12.9025 10.2699 13.52C9.65238 14.17 9.65238 15.1125 10.2699 15.7625C10.8874 16.4125 11.8624 16.4125 12.5124 15.7625C13.1624 15.1125 22.7824 3.77 22.7824 3.77H22.7499Z" fill="white"/>
</svg>
