<svg width="22" height="23" viewBox="0 0 22 23" fill="none" xmlns="http://www.w3.org/2000/svg">
<path d="M21.9188 21.0475L21.3686 19.4795C20.4075 16.742 17.924 14.8138 15.018 14.4453C13.9399 15.5931 12.5366 16.2937 10.9995 16.2937C9.46271 16.2937 8.05976 15.5931 6.98167 14.4453C4.07596 14.8138 1.59255 16.742 0.631395 19.4795L0.0812225 21.0475C-0.0771567 21.4984 -0.00126556 21.9955 0.285731 22.3829C0.572375 22.77 1.03452 22.9995 1.52683 22.9995H20.4731C20.9655 22.9995 21.4276 22.77 21.7142 22.3829C22.0013 21.9955 22.0772 21.4984 21.9188 21.0475Z" fill="white"/>
<path d="M10.9993 15.1321C13.6817 15.1321 15.8593 12.3764 15.9328 8.94336H6.06689C6.14042 12.3764 8.318 15.1321 10.9993 15.1321Z" fill="white"/>
<path d="M4.96271 7.42004C5.12305 7.49653 5.30057 7.5434 5.49138 7.5434H16.4392H16.5096C16.7 7.5434 16.878 7.49653 17.038 7.42004C17.4352 7.2309 17.7109 6.83894 17.7109 6.3812C17.7109 5.73925 17.1732 5.21906 16.5097 5.21906H16.4151H16.2892C16.2548 5.05068 16.2141 4.88429 16.1707 4.71855C15.843 3.46977 15.2514 2.30802 14.4193 1.43864V2.28268C14.4193 2.7105 14.0607 3.05745 13.6185 3.05745C13.1762 3.05745 12.8177 2.7105 12.8177 2.28268V0.296176C12.4989 0.157759 12.1576 0.0619733 11.8009 0V3.12746C11.8009 3.55528 11.4424 3.90222 11.0001 3.90222C10.5579 3.90222 10.1992 3.55528 10.1992 3.12746V0C9.84265 0.0619733 9.50167 0.157759 9.183 0.295786V2.28268C9.183 2.7105 8.82439 3.05745 8.38219 3.05745C7.93999 3.05745 7.58138 2.7105 7.58138 2.28268V1.43869C6.74965 2.30768 6.15838 3.46865 5.8308 4.71674C5.78698 4.88317 5.74629 5.05 5.7119 5.21911H5.5856H5.49138C4.82779 5.21911 4.29016 5.7393 4.29016 6.38125C4.29011 6.8386 4.56578 7.23056 4.96271 7.42004Z" fill="white"/>
</svg>
