<svg width="28" height="28" viewBox="0 0 28 28" fill="none" xmlns="http://www.w3.org/2000/svg">
<path d="M23.6774 8.58064C23.0952 9.16284 22.6303 9.35484 21.7419 9.35484C19.9652 9.35484 18.6452 8.03484 18.6452 6.25806C18.6452 5.36968 18.8372 4.90477 19.4194 4.32258L17.0968 2L2 17.0968L4.32258 19.4194C4.90477 18.8372 5.36968 18.6452 6.25806 18.6452C8.03484 18.6452 9.35484 19.9652 9.35484 21.7419C9.35484 22.6303 9.16284 23.0952 8.58064 23.6774L10.9032 26L26 10.9032L23.6774 8.58064Z" stroke="white" stroke-width="2" stroke-miterlimit="10"/>
<path d="M11.6775 7.41797L13.2259 8.96636" stroke="white" stroke-width="2" stroke-miterlimit="10"/>
<path d="M19.0321 14.7744L20.5805 16.3228" stroke="white" stroke-width="2" stroke-miterlimit="10"/>
<path d="M14.2695 9.47559L15.8176 11.2214" stroke="white" stroke-width="2" stroke-miterlimit="10"/>
<path d="M16.8789 12.4336L18.6247 13.9817" stroke="white" stroke-width="2" stroke-miterlimit="10"/>
</svg>
