<svg width="24" height="23" viewBox="0 0 24 23" fill="none" xmlns="http://www.w3.org/2000/svg">
<path d="M1.04502 10.1766C1.14037 8.62085 1.18805 7.84301 1.5934 7.09486C1.96377 6.41129 2.67239 5.74825 3.38102 5.42221C4.15663 5.06537 5.04563 5.06537 6.82363 5.06537C7.48631 5.06537 7.81766 5.06537 8.13861 5.01147C8.4559 4.95818 8.7653 4.86588 9.0597 4.73668C9.35749 4.60599 9.63411 4.42461 10.1874 4.06186L10.4707 3.87608C13.7616 1.71831 15.407 0.639417 16.7884 1.10817C17.0531 1.19803 17.3095 1.32777 17.5384 1.48777C18.7325 2.32228 18.8232 4.26387 19.0047 8.14706C19.0718 9.58495 19.1176 10.8155 19.1176 11.5C19.1176 12.1845 19.0718 13.4151 19.0047 14.853C18.8232 18.7362 18.7325 20.6778 17.5384 21.5122C17.3095 21.6723 17.0531 21.802 16.7884 21.8918C15.407 22.3605 13.7616 21.2817 10.4707 19.1239L10.1874 18.9382C9.63411 18.5754 9.35749 18.394 9.0597 18.2634C8.7653 18.1341 8.4559 18.0419 8.13861 17.9886C7.81766 17.9347 7.48631 17.9347 6.82363 17.9347C5.04563 17.9347 4.15663 17.9347 3.38102 17.5778C2.67239 17.2518 1.96377 16.5887 1.5934 15.9052C1.18805 15.157 1.14037 14.3791 1.04502 12.8235C1.01681 12.3633 1 11.9149 1 11.5C1 11.0851 1.01681 10.6368 1.04502 10.1766Z" stroke="white" stroke-width="1.5"/>
<path d="M22.353 7.64062C22.353 7.64062 23.0001 8.79886 23.0001 11.5014C23.0001 14.204 22.353 15.3622 22.353 15.3622" stroke="white" stroke-width="1.5" stroke-linecap="round"/>
<path d="M1.04502 10.1766C1.14037 8.62085 1.18805 7.84301 1.5934 7.09486C1.96377 6.41129 2.67239 5.74825 3.38102 5.42221C4.15663 5.06537 5.04563 5.06537 6.82363 5.06537C7.48631 5.06537 7.81766 5.06537 8.13861 5.01147C8.4559 4.95818 8.7653 4.86588 9.0597 4.73668C9.35749 4.60599 9.63411 4.42461 10.1874 4.06186L10.4707 3.87608C13.7616 1.71831 15.407 0.639417 16.7884 1.10817C17.0531 1.19803 17.3095 1.32777 17.5384 1.48777C18.7325 2.32228 18.8232 4.26387 19.0047 8.14706C19.0718 9.58495 19.1176 10.8155 19.1176 11.5C19.1176 12.1845 19.0718 13.4151 19.0047 14.853C18.8232 18.7362 18.7325 20.6778 17.5384 21.5122C17.3095 21.6723 17.0531 21.802 16.7884 21.8918C15.407 22.3605 13.7616 21.2817 10.4707 19.1239L10.1874 18.9382C9.63411 18.5754 9.35749 18.394 9.0597 18.2634C8.7653 18.1341 8.4559 18.0419 8.13861 17.9886C7.81766 17.9347 7.48631 17.9347 6.82363 17.9347C5.04563 17.9347 4.15663 17.9347 3.38102 17.5778C2.67239 17.2518 1.96377 16.5887 1.5934 15.9052C1.18805 15.157 1.14037 14.3791 1.04502 12.8235C1.01681 12.3633 1 11.9149 1 11.5C1 11.0851 1.01681 10.6368 1.04502 10.1766Z" stroke="white" stroke-width="1.5"/>
<path d="M22.353 7.64062C22.353 7.64062 23.0001 8.79886 23.0001 11.5014C23.0001 14.204 22.353 15.3622 22.353 15.3622" stroke="white" stroke-width="1.5" stroke-linecap="round"/>
</svg>
