<svg width="15" height="17" viewBox="0 0 15 17" fill="none" xmlns="http://www.w3.org/2000/svg">
<path d="M7.54261 2.96156C7.84445 2.96156 8.56155 3.14459 8.56155 3.14459C10.5043 3.57151 11.8717 5.28753 11.8717 7.225V12.4399L12.2689 12.8226L12.6008 13.1423H2.39923L2.73111 12.8226L3.12831 12.4399V7.225C3.12831 5.28757 4.49574 3.57151 6.43845 3.14459C6.43845 3.14459 7.20733 2.96156 7.45739 2.96156M7.5 0C6.74991 0 6.17646 0.552418 6.17646 1.275V1.86996C3.66162 2.42258 1.76467 4.6325 1.76467 7.225V11.9L0 13.6V14.45H15V13.6L13.2353 11.9V7.225C13.2353 4.6325 11.3383 2.42258 8.82354 1.86996V1.275C8.82354 0.552418 8.25008 0 7.5 0ZM9.26467 15.3H5.73528C5.73528 16.235 6.5293 17 7.5 17C8.4707 17 9.26467 16.235 9.26467 15.3Z" fill="#2F4858"/>
</svg>
