<svg width="24" height="22" viewBox="0 0 24 22" fill="none" xmlns="http://www.w3.org/2000/svg">
<path d="M5.88889 7.25H18.1111M5.88889 12.25H12M23 21L18.937 18.9222C18.629 18.7647 18.475 18.686 18.3135 18.6305C18.1703 18.5813 18.0227 18.5456 17.873 18.5241C17.7044 18.5 17.5321 18.5 17.1878 18.5H4.91111C3.54209 18.5 2.85758 18.5 2.33469 18.2275C1.87473 17.9879 1.50078 17.6054 1.26643 17.135C1 16.6003 1 15.9001 1 14.5V5C1 3.59986 1 2.8998 1.26643 2.36503C1.50078 1.89461 1.87473 1.51216 2.33469 1.27249C2.85758 1 3.5421 1 4.91111 1H19.0889C20.4579 1 21.1425 1 21.6653 1.27249C22.1253 1.51216 22.4993 1.89461 22.7336 2.36503C23 2.8998 23 3.59987 23 5V21Z" stroke="white" stroke-width="1.8" stroke-linecap="round" stroke-linejoin="round"/>
</svg>
