<svg width="17" height="17" viewBox="0 0 17 17" fill="none" xmlns="http://www.w3.org/2000/svg">
<path d="M15.611 9.06092C15.4723 8.90583 15.3958 8.70644 15.3958 8.5C15.3958 8.29356 15.4723 8.09417 15.611 7.93908L16.7185 6.71524C16.8405 6.58153 16.9163 6.41328 16.9349 6.23464C16.9536 6.056 16.9141 5.87614 16.8223 5.72088L15.0919 2.78028C15.001 2.62519 14.8625 2.50226 14.6963 2.42901C14.5301 2.35576 14.3445 2.33592 14.1661 2.37233L12.5396 2.69529C12.3326 2.7373 12.1172 2.70344 11.9339 2.6001C11.7506 2.49677 11.6121 2.3311 11.5446 2.13437L11.0169 0.579077C10.9588 0.410272 10.8482 0.263655 10.7007 0.15995C10.5532 0.0562444 10.3763 0.000695882 10.1949 0.00115581H6.73416C6.5455 -0.00851761 6.35879 0.0427376 6.20256 0.147093C6.04633 0.251448 5.92917 0.403167 5.86897 0.579077L5.38447 2.13437C5.31698 2.3311 5.17853 2.49677 4.99523 2.6001C4.81193 2.70344 4.59647 2.7373 4.3895 2.69529L2.71968 2.37233C2.55058 2.34886 2.37819 2.37507 2.22423 2.44767C2.07027 2.52026 1.94162 2.63599 1.85449 2.78028L0.124112 5.72088C0.0299451 5.87441 -0.0123955 6.05326 0.00314371 6.23185C0.0186829 6.41044 0.0913063 6.57964 0.210631 6.71524L1.30942 7.93908C1.44813 8.09417 1.52463 8.29356 1.52463 8.5C1.52463 8.70644 1.44813 8.90583 1.30942 9.06092L0.210631 10.2848C0.0913063 10.4204 0.0186829 10.5896 0.00314371 10.7682C-0.0123955 10.9467 0.0299451 11.1256 0.124112 11.2791L1.85449 14.2197C1.94542 14.3748 2.08387 14.4977 2.2501 14.571C2.41633 14.6442 2.60186 14.6641 2.78025 14.6277L4.4068 14.3047C4.61377 14.2627 4.82924 14.2966 5.01253 14.3999C5.19583 14.5032 5.33429 14.6689 5.40177 14.8656L5.92954 16.4209C5.98974 16.5968 6.1069 16.7486 6.26313 16.8529C6.41935 16.9573 6.60606 17.0085 6.79473 16.9988H10.2555C10.4369 16.9993 10.6138 16.9438 10.7613 16.8401C10.9088 16.7363 11.0194 16.5897 11.0774 16.4209L11.6052 14.8656C11.6727 14.6689 11.8111 14.5032 11.9944 14.3999C12.1777 14.2966 12.3932 14.2627 12.6002 14.3047L14.2267 14.6277C14.4051 14.6641 14.5906 14.6442 14.7569 14.571C14.9231 14.4977 15.0615 14.3748 15.1525 14.2197L16.8828 11.2791C16.9747 11.1239 17.0141 10.944 16.9955 10.7654C16.9768 10.5867 16.9011 10.4185 16.779 10.2848L15.611 9.06092ZM14.3219 10.1998L15.014 10.9647L13.9066 12.8514L12.8857 12.6474C12.2625 12.5223 11.6143 12.6263 11.0641 12.9396C10.5139 13.253 10.0999 13.7538 9.90076 14.3472L9.57199 15.2991H7.3571L7.04563 14.3302C6.84651 13.7369 6.43254 13.236 5.8823 12.9226C5.33206 12.6093 4.68386 12.5053 4.06073 12.6304L3.0398 12.8344L1.91506 10.9562L2.60721 10.1913C3.03284 9.72381 3.26815 9.11866 3.26815 8.4915C3.26815 7.86434 3.03284 7.25919 2.60721 6.79173L1.91506 6.02684L3.0225 4.15709L4.04342 4.36106C4.66655 4.48619 5.31476 4.38221 5.865 4.06887C6.41524 3.75553 6.82921 3.25465 7.02833 2.66129L7.3571 1.70092H9.57199L9.90076 2.66979C10.0999 3.26315 10.5139 3.76403 11.0641 4.07737C11.6143 4.39071 12.2625 4.49468 12.8857 4.36956L13.9066 4.16559L15.014 6.05233L14.3219 6.81723C13.901 7.28361 13.6686 7.88526 13.6686 8.5085C13.6686 9.13173 13.901 9.73339 14.3219 10.1998ZM8.46455 5.10046C7.78007 5.10046 7.11097 5.29984 6.54185 5.67339C5.97273 6.04693 5.52916 6.57787 5.26722 7.19905C5.00528 7.82024 4.93675 8.50377 5.07028 9.16322C5.20382 9.82266 5.53342 10.4284 6.01742 10.9038C6.50141 11.3793 7.11806 11.703 7.78938 11.8342C8.46071 11.9654 9.15655 11.8981 9.78892 11.6408C10.4213 11.3835 10.9618 10.9477 11.3421 10.3887C11.7223 9.82963 11.9253 9.17237 11.9253 8.5C11.9253 7.59839 11.5607 6.7337 10.9117 6.09616C10.2627 5.45863 9.3824 5.10046 8.46455 5.10046ZM8.46455 10.1998C8.12231 10.1998 7.78776 10.1001 7.5032 9.91331C7.21864 9.72653 6.99685 9.46107 6.86588 9.15047C6.73491 8.83988 6.70065 8.49811 6.76741 8.16839C6.83418 7.83867 6.99898 7.5358 7.24098 7.29808C7.48298 7.06037 7.7913 6.89848 8.12696 6.83289C8.46263 6.76731 8.81055 6.80097 9.12673 6.92962C9.44292 7.05827 9.71317 7.27613 9.9033 7.55566C10.0934 7.83519 10.1949 8.16382 10.1949 8.5C10.1949 8.95081 10.0126 9.38315 9.68811 9.70192C9.3636 10.0207 8.92347 10.1998 8.46455 10.1998Z" fill="#2F4858"/>
</svg>
