<svg width="16" height="21" viewBox="0 0 16 21" fill="none" xmlns="http://www.w3.org/2000/svg">
<path d="M16 2.3619H11.6966L10.467 0.517578H5.54884L4.31929 2.3619H0.0158691V4.821H16V2.3619Z" fill="#909090"/>
<path d="M14.7704 8.05078C14.7704 6.94621 13.875 6.05078 12.7704 6.05078H3.24536C2.14079 6.05078 1.24536 6.94621 1.24536 8.05078V18.1906C1.24536 19.2952 2.14079 20.1906 3.24536 20.1906H12.7704C13.875 20.1906 14.7704 19.2952 14.7704 18.1906V8.05078ZM4.93401 15.8872C4.93401 16.2267 4.65876 16.5019 4.31923 16.5019C3.9797 16.5019 3.70446 16.2267 3.70446 15.8872V10.3542C3.70446 10.0147 3.9797 9.73943 4.31923 9.73943C4.65876 9.73943 4.93401 10.0147 4.93401 10.3542V15.8872ZM8.62265 15.8872C8.62265 16.2267 8.34741 16.5019 8.00788 16.5019C7.66835 16.5019 7.3931 16.2267 7.3931 15.8872V10.3542C7.3931 10.0147 7.66835 9.73943 8.00788 9.73943C8.34741 9.73943 8.62265 10.0147 8.62265 10.3542V15.8872ZM12.3113 15.8872C12.3113 16.2267 12.0361 16.5019 11.6965 16.5019C11.357 16.5019 11.0817 16.2267 11.0817 15.8872V10.3542C11.0817 10.0147 11.357 9.73943 11.6965 9.73943C12.0361 9.73943 12.3113 10.0147 12.3113 10.3542V15.8872Z" fill="#909090"/>
</svg>
