<svg width="21" height="21" viewBox="0 0 21 21" fill="none" xmlns="http://www.w3.org/2000/svg">
<path d="M2.94445 20.1241H15.5635C16.3456 20.1219 17.0949 19.8095 17.6469 19.2554C18.199 18.7013 18.5086 17.9509 18.5079 17.1688V10.8281C18.5079 10.605 18.4193 10.391 18.2615 10.2332C18.1038 10.0755 17.8898 9.98685 17.6667 9.98685C17.4436 9.98685 17.2296 10.0755 17.0718 10.2332C16.914 10.391 16.8254 10.605 16.8254 10.8281V17.1688C16.8265 17.5048 16.6943 17.8275 16.4577 18.0662C16.2211 18.3048 15.8995 18.4398 15.5635 18.4416H2.94445C2.60842 18.4398 2.28683 18.3048 2.05025 18.0662C1.81366 17.8275 1.68142 17.5048 1.68254 17.1688V4.57159C1.68142 4.23556 1.81366 3.91282 2.05025 3.67419C2.28683 3.43555 2.60842 3.30053 2.94445 3.29875H9.25397C9.47709 3.29875 9.69107 3.21012 9.84884 3.05235C10.0066 2.89458 10.0952 2.6806 10.0952 2.45748C10.0952 2.23436 10.0066 2.02038 9.84884 1.86261C9.69107 1.70484 9.47709 1.61621 9.25397 1.61621H2.94445C2.16232 1.61844 1.41303 1.93087 0.861005 2.48494C0.308983 3.03902 -0.000670569 3.78946 1.09038e-06 4.57159V17.1688C-0.000670569 17.9509 0.308983 18.7013 0.861005 19.2554C1.41303 19.8095 2.16232 20.1219 2.94445 20.1241Z" fill="#909090"/>
<path d="M7.95428 8.80429L7.29052 11.8446C7.26048 11.9825 7.26561 12.1258 7.30545 12.2612C7.34529 12.3966 7.41856 12.5198 7.51851 12.6195C7.61983 12.7166 7.74307 12.7879 7.8778 12.8273C8.01253 12.8667 8.15478 12.873 8.29247 12.8458L11.3261 12.1803C11.4836 12.1457 11.6279 12.0666 11.7417 11.9523L19.409 4.28499C19.6434 4.05063 19.8294 3.77239 19.9562 3.46616C20.0831 3.15993 20.1484 2.83171 20.1484 2.50024C20.1484 2.16877 20.0831 1.84055 19.9562 1.53432C19.8294 1.22809 19.6434 0.949848 19.409 0.715485C18.9285 0.256266 18.2894 0 17.6247 0C16.96 0 16.3209 0.256266 15.8403 0.715485L8.18479 8.39039C8.06989 8.50343 7.98988 8.64709 7.95428 8.80429ZM17.0299 1.90588C17.19 1.75255 17.403 1.66696 17.6247 1.66696C17.8463 1.66696 18.0594 1.75255 18.2195 1.90588C18.3751 2.06457 18.4623 2.27797 18.4623 2.50024C18.4623 2.72251 18.3751 2.93591 18.2195 3.0946L17.6247 3.68937L16.4351 2.49982L17.0299 1.90588ZM9.5426 9.40496L15.2414 3.6919L16.4191 4.87556L10.7179 10.5903L9.20778 10.9218L9.5426 9.40496Z" fill="#909090"/>
</svg>
