<svg width="17" height="17" viewBox="0 0 17 17" fill="none" xmlns="http://www.w3.org/2000/svg">
<path d="M8.5 16C4.35786 16 1 12.6421 1 8.5C1 4.35786 4.35786 1 8.5 1C12.6421 1 16 4.35786 16 8.5C16 12.6421 12.6421 16 8.5 16Z" stroke="#2F4858" stroke-miterlimit="10"/>
<path d="M15.5729 6H1.42717" stroke="#2F4858" stroke-linecap="round" stroke-linejoin="round"/>
<path d="M15.5725 11H1.42696" stroke="#2F4858" stroke-linecap="round" stroke-linejoin="round"/>
<path d="M8.5 15.7985C6.77411 15.7985 5.375 12.5308 5.375 8.49984C5.375 4.4689 6.77411 1.20117 8.5 1.20117C10.2259 1.20117 11.625 4.4689 11.625 8.49984C11.625 12.5308 10.2259 15.7985 8.5 15.7985Z" stroke="#2F4858" stroke-miterlimit="10"/>
</svg>
