<svg width="11" height="9" viewBox="0 0 11 9" fill="none" xmlns="http://www.w3.org/2000/svg">
<g clip-path="url(#clip0_121_1346)">
<path d="M11 4.24846L5.87905 0.0585938V2.80345C4.34485 2.86927 2.91388 3.38945 1.8194 4.28494C0.646142 5.24486 0 6.52116 0 7.87873V8.94108L0.624529 8.00971C1.59893 6.55651 3.46418 5.65376 5.49231 5.65376C5.62091 5.65376 5.75021 5.65749 5.87905 5.66487V8.43833L11 4.24846ZM5.49231 5.10919C3.67596 5.10919 1.97615 5.75593 0.810025 6.84741C1.38224 4.84039 3.58701 3.34087 6.21182 3.34087H6.54459V1.37323L10.0587 4.24845L6.54459 7.12366V5.17713L6.25273 5.14755C6.0016 5.12211 5.74576 5.10919 5.49231 5.10919Z" fill="white"/>
</g>
<defs>
<clipPath id="clip0_121_1346">
<rect width="11" height="9" fill="white"/>
</clipPath>
</defs>
</svg>
