<svg width="22" height="23" viewBox="0 0 22 23" fill="none" xmlns="http://www.w3.org/2000/svg">
<path d="M11.6875 1.72163H20.625V21.3153H11.6875C11.308 21.3153 11 21.6289 11 22.0151C11 22.4013 11.3081 22.7148 11.6875 22.7148H21.3125C21.692 22.7148 22 22.4014 22 22.0151V1.02188C22 0.635586 21.692 0.322121 21.3125 0.322121H11.6876C11.3081 0.322121 11.0001 0.635643 11.0001 1.02188C11 1.40817 11.3081 1.72163 11.6875 1.72163Z" fill="white"/>
<path d="M0.199106 12.0056L4.94283 16.9033C5.21165 17.1797 5.64683 17.179 5.91496 16.9033C6.18378 16.6276 6.18378 16.1798 5.91496 15.904L2.33995 12.2127H16.4976C16.8771 12.2127 17.1851 11.8964 17.1851 11.5059C17.1851 11.1155 16.877 10.7991 16.4976 10.7991H2.33995L5.91496 7.10782C6.18378 6.83141 6.18378 6.38428 5.91496 6.10856C5.64614 5.83215 5.21097 5.83215 4.94283 6.10856L0.199791 11.0063C-0.0655994 11.2785 -0.0683422 11.7341 0.199106 12.0056Z" fill="white"/>
</svg>
