<svg width="21" height="22" viewBox="0 0 21 22" fill="none" xmlns="http://www.w3.org/2000/svg">
<path d="M19.5748 20.374L19.5749 20.3742C19.6437 20.5767 19.6107 20.7996 19.4862 20.9733L19.486 20.9735C19.3618 21.147 19.1612 21.2501 18.9471 21.2501H1.41303C1.19904 21.2501 0.998426 21.147 0.874116 20.9735L0.874018 20.9734C0.749475 20.7996 0.716485 20.5767 0.785288 20.3742L0.785366 20.374L1.29448 18.8742C1.2945 18.8741 1.29451 18.8741 1.29453 18.874C2.05039 16.6491 3.94263 15.0471 6.19319 14.6196C7.26919 15.6726 8.64824 16.3356 10.1796 16.3356C11.7112 16.3356 13.0906 15.6726 14.1667 14.6196C16.4176 15.0471 18.3098 16.6491 19.0657 18.874C19.0657 18.8741 19.0657 18.8741 19.0657 18.8742L19.5748 20.374Z" stroke="white" stroke-width="1.5"/>
<path d="M13.94 9.30371C13.7916 10.4848 13.3643 11.5197 12.7734 12.2879C12.0585 13.2173 11.1371 13.7237 10.1796 13.7237C9.22271 13.7237 8.30149 13.2174 7.58668 12.288C6.99586 11.5197 6.5686 10.4848 6.42023 9.30371H13.94Z" stroke="white" stroke-width="1.5"/>
<path d="M6.12289 4.69652C6.25706 4.16814 6.44145 3.66503 6.67085 3.20495C6.94283 3.49411 7.32893 3.67468 7.75718 3.67468C8.12637 3.67468 8.46424 3.54047 8.72467 3.31819C8.87358 3.98461 9.46863 4.48277 10.1799 4.48277C10.8915 4.48277 11.4865 3.98439 11.6353 3.31782C11.8957 3.54032 12.2338 3.67468 12.6032 3.67468C13.0315 3.67468 13.4176 3.49408 13.6896 3.2049C13.9193 3.6655 14.1039 4.16921 14.2382 4.6982C14.2766 4.84946 14.3107 4.9945 14.339 5.13763L14.4583 5.74243H15.0748H15.1914H15.2789C15.4787 5.74243 15.6406 5.90425 15.6406 6.10411C15.6406 6.24035 15.5624 6.36302 15.4366 6.42489L15.4354 6.42549C15.3769 6.45443 15.3252 6.46584 15.2788 6.46584H15.2137H5.08183C5.03536 6.46584 4.98397 6.45458 4.92443 6.42525C4.79821 6.36297 4.72014 6.2399 4.72015 6.10424V6.10416C4.72015 5.90427 4.88195 5.74248 5.08183 5.74248H5.16903H5.28592H5.90272L6.02181 5.13728C6.05012 4.99342 6.08428 4.84808 6.12276 4.69703L6.12289 4.69652Z" stroke="white" stroke-width="1.5"/>
</svg>
