<svg width="26" height="26" viewBox="0 0 26 26" fill="none" xmlns="http://www.w3.org/2000/svg">
<path d="M21.871 8.03226C21.3373 8.56594 20.9111 8.74194 20.0968 8.74194C18.4681 8.74194 17.2581 7.53194 17.2581 5.90323C17.2581 5.08887 17.4341 4.66271 17.9677 4.12903L15.8387 2L2 15.8387L4.12903 17.9677C4.66271 17.4341 5.08887 17.2581 5.90323 17.2581C7.53194 17.2581 8.74194 18.4681 8.74194 20.0968C8.74194 20.9111 8.56594 21.3373 8.03226 21.871L10.1613 24L24 10.1613L21.871 8.03226Z" stroke="white" stroke-width="1.5" stroke-miterlimit="10"/>
<path d="M10.8709 6.96777L12.2903 8.38713" stroke="white" stroke-width="1.5" stroke-miterlimit="10"/>
<path d="M17.6129 13.71L19.0322 15.1293" stroke="white" stroke-width="1.5" stroke-miterlimit="10"/>
<path d="M13.2471 8.85254L14.6661 10.4528" stroke="white" stroke-width="1.5" stroke-miterlimit="10"/>
<path d="M15.6388 11.5654L17.2391 12.9845" stroke="white" stroke-width="1.5" stroke-miterlimit="10"/>
</svg>
