<svg width="40" height="41" viewBox="0 0 40 41" fill="none" xmlns="http://www.w3.org/2000/svg">
<path fill-rule="evenodd" clip-rule="evenodd" d="M40 19.8567C40 8.88993 31.0457 -0.000419617 20 -0.000419617C8.95431 -0.000419617 0 8.88993 0 19.8567C0 30.8235 8.95431 39.7139 20 39.7139C31.0457 39.7139 40 30.8235 40 19.8567ZM20 6.27026C27.5576 6.27026 33.6842 12.3531 33.6842 19.8567C33.6842 27.3603 27.5576 33.4432 20 33.4432C12.4424 33.4432 6.31579 27.3603 6.31579 19.8567C6.31579 12.3531 12.4424 6.27026 20 6.27026Z" fill="#01BCCD"/>
<path d="M32.8571 39.7144V34.5351L39.7143 19.4287V39.7144H32.8571Z" fill="#01BCCD"/>
<path fill-rule="evenodd" clip-rule="evenodd" d="M33.2789 34.8091V39.5836H39.2925V21.2402L33.2789 34.8091ZM39.3224 19.4287L40 19.5701V40.2859H32.5714V34.6614L39.3224 19.4287Z" fill="#01BCCD"/>
</svg>
