<svg width="228" height="228" viewBox="0 0 228 228" fill="none" xmlns="http://www.w3.org/2000/svg">
<rect width="228" height="228" rx="10" fill="#01BCCD"/>
<path fill-rule="evenodd" clip-rule="evenodd" d="M184 116.5C184 78.1162 152.66 47 114 47C75.3401 47 44 78.1162 44 116.5C44 154.884 75.3401 186 114 186C152.66 186 184 154.884 184 116.5ZM114 68.9474C140.452 68.9474 161.895 90.2374 161.895 116.5C161.895 142.763 140.452 164.053 114 164.053C87.5485 164.053 66.1053 142.763 66.1053 116.5C66.1053 90.2374 87.5485 68.9474 114 68.9474Z" fill="white"/>
<path d="M159 186V167.872L183 115V186H159Z" fill="white"/>
<path fill-rule="evenodd" clip-rule="evenodd" d="M160.476 168.831V185.542H181.524V121.34L160.476 168.831ZM181.629 115L184 115.495V188H158V168.315L181.629 115Z" fill="white"/>
</svg>
